HIERARCHY
ROOT SpineBase
{
  OFFSET 0.000000 0.000000 0.000000
  CHANNELS 6 Xposition Yposition Zposition Zrotation Xrotation Yrotation
  JOINT SpineMid
  {
    OFFSET 0.000000 35.462942 0.000000
    CHANNELS 3 Zrotation Xrotation Yrotation
    JOINT SpineShoulder
    {
      OFFSET 0.295303 26.372544 -1.084607
      CHANNELS 3 Zrotation Xrotation Yrotation
      JOINT Neck
      {
        OFFSET 0.145628 8.731782 -0.769464
        CHANNELS 3 Zrotation Xrotation Yrotation
        JOINT Head
        {
          OFFSET 2.394028 9.345150 6.226105
          CHANNELS 3 Zrotation Xrotation Yrotation
          End Site
          {
            OFFSET 0 0 0
          }
        }
      }
      JOINT ShoulderLeft
      {
        OFFSET 0.324963 -3.863808 -12.072904
        CHANNELS 3 Zrotation Xrotation Yrotation
        JOINT ElbowLeft
        {
          OFFSET 17.771226 -21.168362 -5.163070
          CHANNELS 3 Zrotation Xrotation Yrotation
          JOINT WristLeft
          {
            OFFSET 7.310479 -22.471762 2.584538
            CHANNELS 3 Zrotation Xrotation Yrotation
            JOINT HandLeft
            {
              OFFSET 3.029883 -8.001945 1.195819
              CHANNELS 3 Zrotation Xrotation Yrotation
              JOINT HandTipLeft
              {
                OFFSET 1.667687 -6.998984 -0.590942
                CHANNELS 3 Zrotation Xrotation Yrotation
                End Site
                {
                  OFFSET 0 0 0
                }
              }
              JOINT ThumbLeft
              {
                OFFSET -1.570656 -2.946650 -1.465230
                CHANNELS 3 Zrotation Xrotation Yrotation
                End Site
                {
                  OFFSET 0 0 0
                }
              }
            }
          }
        }
      }
      JOINT ShoulderRight
      {
        OFFSET 17.110339 -2.473069 -14.571614
        CHANNELS 3 Zrotation Xrotation Yrotation
        JOINT ElbowRight
        {
          OFFSET 4.100663 -27.133415 -0.972700
          CHANNELS 3 Zrotation Xrotation Yrotation
          JOINT WristRight
          {
            OFFSET 6.671632 -26.046218 2.982717
            CHANNELS 3 Zrotation Xrotation Yrotation
            JOINT HandRight
            {
              OFFSET 1.183518 -4.655128 -0.324195
              CHANNELS 3 Zrotation Xrotation Yrotation
              JOINT HandTipRight
              {
                OFFSET -0.173580 -6.468340 -0.258647
                CHANNELS 3 Zrotation Xrotation Yrotation
                End Site
                {
                  OFFSET 0 0 0
                }
              }
              JOINT ThumbRight
              {
                OFFSET 1.889702 -0.592942 -3.370340
                CHANNELS 3 Zrotation Xrotation Yrotation
                End Site
                {
                  OFFSET 0 0 0
                }
              }
            }
          }
        }
      }
    }
  }
  JOINT HipLeft
  {
    OFFSET -5.301417 0.458454 -9.036877
    CHANNELS 3 Zrotation Xrotation Yrotation
    JOINT KneeLeft
    {
      OFFSET 16.749042 -31.505940 4.047364
      CHANNELS 3 Zrotation Xrotation Yrotation
      JOINT AnkleLeft
      {
        OFFSET 5.447637 -33.506817 -1.126028
        CHANNELS 3 Zrotation Xrotation Yrotation
        JOINT FootLeft
        {
          OFFSET -0.923642 -2.413690 -12.181805
          CHANNELS 3 Zrotation Xrotation Yrotation
          End Site
          {
            OFFSET 0 0 0
          }
        }
      }
    }
  }
  JOINT HipRight
  {
    OFFSET 6.987544 1.812748 1.409996
    CHANNELS 3 Zrotation Xrotation Yrotation
    JOINT KneeRight
    {
      OFFSET 4.689385 -39.542757 -0.181974
      CHANNELS 3 Zrotation Xrotation Yrotation
      JOINT AnkleRight
      {
        OFFSET -3.409944 -26.790077 -3.115964
        CHANNELS 3 Zrotation Xrotation Yrotation
        JOINT FootRight
        {
          OFFSET 8.190727 -5.328082 -2.278788
          CHANNELS 3 Zrotation Xrotation Yrotation
          End Site
          {
            OFFSET 0 0 0
          }
        }
      }
    }
  }
}
MOTION
Frames: 9
Frame Time: 0.033333
-58.701995 70.263214 263.554114 -0.000000 0.000000 -40.367937 -0.000000 0.000000 40.367937 -0.000000 0.000000 0.000000 -0.000000 0.000000 0.000000 0.000000 0.000000 0.000000 -0.000000 0.000000 0.000000 -0.000000 0.000000 0.000000 -0.000000 0.000000 0.000000 -0.000000 0.000000 0.000000 0.000000 0.000000 0.000000 0.000000 0.000000 0.000000 -0.000000 0.000000 0.000000 -0.000000 0.000000 0.000000 -0.000000 0.000000 0.000000 -0.000000 0.000000 0.000000 0.000000 0.000000 0.000000 0.000000 0.000000 0.000000 -0.000000 0.000000 40.367937 -0.000000 0.000000 0.000000 -0.000000 0.000000 0.000000 0.000000 0.000000 0.000000 -0.000000 0.000000 40.367937 -0.000000 0.000000 0.000000 -0.000000 0.000000 0.000000 0.000000 0.000000 0.000000
-59.299350 69.874767 262.907459 -0.931491 0.266409 -41.722315 -0.006899 -0.008563 41.682721 -0.254827 0.176003 -0.069889 0.621649 -0.807039 0.590123 0.000000 0.000000 0.000000 3.219900 0.390986 0.314206 -1.128309 -2.133696 -0.509186 -2.889110 0.794007 -0.120239 3.751839 0.129877 0.225184 0.000000 0.000000 0.000000 0.000000 0.000000 0.000000 2.270196 -0.394606 0.093121 -1.072318 -0.042148 0.031724 3.016149 -5.161056 -1.382187 -2.149511 5.073600 1.530281 0.000000 0.000000 0.000000 0.000000 0.000000 0.000000 2.787522 1.012609 41.490858 -1.826127 0.825775 0.219616 0.904617 -12.325192 0.590085 0.000000 0.000000 0.000000 -0.244638 0.082051 41.789292 4.262415 -2.677330 -0.065047 0.072655 6.720498 5.160031 0.000000 0.000000 0.000000
-59.505963 69.690601 262.331206 -1.393886 0.456340 -42.418777 -0.081344 -0.046019 42.357766 -0.455038 0.252753 -0.114372 1.075700 -1.591599 0.980917 0.000000 0.000000 0.000000 5.640511 0.801083 0.548557 -2.001046 -4.015224 -0.937017 -5.405840 1.408600 -0.174327 6.966891 0.215995 0.379357 0.000000 0.000000 0.000000 0.000000 0.000000 0.000000 3.918256 -0.670507 0.155872 -1.882488 -1.041715 -0.179789 5.478656 -8.719175 -2.229536 -4.320436 9.197644 3.015197 0.000000 0.000000 0.000000 0.000000 0.000000 0.000000 4.479350 1.537831 41.983982 -1.753442 2.037753 0.434879 1.656178 -33.019785 2.081139 0.000000 0.000000 0.000000 -0.304560 0.284987 42.540186 6.585555 -5.152350 0.117038 -0.683238 12.901511 10.000805 0.000000 0.000000 0.000000
-59.321834 69.710717 261.825356 -1.395626 0.572429 -42.521667 -0.222685 -0.112924 42.453580 -0.601877 0.230415 -0.136201 1.376448 -2.356275 1.172305 0.000000 0.000000 0.000000 7.271634 1.215588 0.691910 -2.597404 -5.661292 -1.287888 -7.576319 1.859009 -0.190945 9.641650 0.249062 0.473377 0.000000 0.000000 0.000000 0.000000 0.000000 0.000000 4.952471 -0.835470 0.174293 -2.393726 -1.656714 -0.283780 7.246213 -11.779609 -2.871944 -6.289022 12.158552 4.366644 0.000000 0.000000 0.000000 0.000000 0.000000 0.000000 5.088101 1.483085 41.956089 -1.929735 2.613166 0.588942 6.963373 -59.310661 7.121777 0.000000 0.000000 0.000000 -0.178959 0.618968 42.679670 6.905971 -7.390728 0.426866 -2.388934 18.145617 14.953207 0.000000 0.000000 0.000000
-58.746964 69.935114 261.389909 -0.935340 0.615712 -42.044921 -0.434971 -0.206936 41.981906 -0.697234 0.108507 -0.135707 1.530852 -3.104180 1.164708 0.000000 0.000000 0.000000 8.119557 1.625853 0.739555 -2.902321 -7.087261 -1.565416 -9.421406 2.157652 -0.192128 11.772759 0.225585 0.519388 0.000000 0.000000 0.000000 0.000000 0.000000 0.000000 5.375529 -0.893792 0.139809 -2.615466 -2.337429 -0.394027 8.295181 -13.745302 -3.280741 -7.892437 13.848944 5.486356 0.000000 0.000000 0.000000 0.000000 0.000000 0.000000 4.598682 0.822064 41.431540 -1.598055 2.890994 0.697355 33.221169 -80.385830 32.946252 0.000000 0.000000 0.000000 0.139978 1.081342 42.216496 5.177167 -9.377976 0.763922 -5.302320 22.038063 20.446145 0.000000 0.000000 0.000000
-57.781351 70.363792 261.024865 -0.001744 0.585532 -40.955867 -0.727050 -0.322075 40.909436 -0.743326 -0.114282 -0.110767 1.537865 -3.838605 0.958816 0.000000 0.000000 0.000000 8.184509 2.029651 0.691943 -2.904397 -8.306669 -1.773252 -10.956666 2.313803 -0.194952 13.356225 0.147652 0.530206 0.000000 0.000000 0.000000 0.000000 0.000000 0.000000 5.183883 -0.845648 0.048682 -2.545700 -3.085992 -0.508221 8.616787 -14.564675 -3.505904 -9.041108 14.237011 6.295701 0.000000 0.000000 0.000000 0.000000 0.000000 0.000000 2.965973 -0.410722 40.348917 -0.752885 2.872001 0.762217 131.984903 -82.021823 131.137755 0.000000 0.000000 0.000000 0.667204 1.655076 41.112620 1.368083 -11.098498 1.051854 -9.733742 23.981596 26.709191 0.000000 0.000000 0.000000
-56.034686 71.181745 260.679718 1.929913 0.479482 -39.278282 -1.367648 -0.557504 39.261418 -0.518306 -0.913412 -0.015214 1.014996 -4.570348 0.551617 0.000000 0.000000 0.000000 6.901384 2.841190 0.500667 -2.039496 -9.447852 -1.878350 -13.030677 2.051936 -0.388832 14.531596 0.191966 0.617740 0.000000 0.000000 0.000000 0.000000 0.000000 0.000000 3.532935 -0.163973 -0.145744 -1.646123 -4.250377 -0.685100 9.257304 -13.927218 -3.519662 -10.853807 12.291804 6.988132 0.000000 0.000000 0.000000 0.000000 0.000000 0.000000 -0.674770 -2.785323 38.563129 0.890084 2.557917 0.879885 152.706717 -81.726525 148.201954 0.000000 0.000000 0.000000 1.394620 2.389153 39.385879 -3.659400 -12.921013 1.282048 -24.020886 22.844516 42.343889 0.000000 0.000000 0.000000
-54.051518 72.129650 260.484457 4.244981 0.249557 -36.572922 -2.033467 -0.745435 36.602764 -0.856464 -1.093650 0.046109 1.003761 -5.558300 -0.074455 0.000000 0.000000 0.000000 5.533793 2.980962 0.313599 -1.259754 -10.344948 -1.933456 -14.322620 1.876556 -0.466320 15.285100 -0.053519 0.595327 0.000000 0.000000 0.000000 0.000000 0.000000 0.000000 2.222702 -0.228689 -0.312005 -0.594506 -5.147566 -0.760022 7.252320 -11.816567 -3.341119 -10.544657 8.390407 6.815446 0.000000 0.000000 0.000000 0.000000 0.000000 0.000000 -5.532213 -4.962493 35.678411 2.690843 1.644353 0.853620 30.311090 -87.119676 21.461310 0.000000 0.000000 0.000000 2.385330 3.036197 36.584097 -12.323298 -14.198311 1.380252 -30.828166 17.898547 50.005971 0.000000 0.000000 0.000000
-52.048522 73.067207 260.362094 6.601772 -0.020416 -33.260683 -2.593211 -0.819371 33.357307 -0.716224 -1.558213 0.186458 0.577821 -6.145958 -0.926882 0.000000 0.000000 0.000000 3.336687 3.436273 0.037820 -0.644876 -11.126196 -2.039189 -14.501229 1.790891 -0.427181 15.221511 -0.492991 0.476638 0.000000 0.000000 0.000000 0.000000 0.000000 0.000000 0.586457 -0.086076 -0.581101 -0.180975 -5.762842 -0.816813 5.695745 -9.537353 -3.037815 -10.431829 5.914738 6.482979 0.000000 0.000000 0.000000 0.000000 0.000000 0.000000 -10.881571 -6.536153 32.043231 4.754588 0.900394 0.848536 79.779511 -87.366906 71.922904 0.000000 0.000000 0.000000 3.514390 3.582040 33.160907 -22.787951 -14.820352 1.329288 -31.156893 12.586209 48.545517 0.000000 0.000000 0.000000
